<?xml version="1.0" encoding="UTF-8"?>
<svg xmlns="http://www.w3.org/2000/svg" xmlns:xlink="http://www.w3.org/1999/xlink" width="376pt" height="20pt" viewBox="0 0 376 20" version="1.1">
<defs>
<clipPath id="clip2">
  <path d="M 357.191406 1 L 375.511719 1 L 375.511719 19 L 357.191406 19 Z M 357.191406 1 "/>
</clipPath>
<clipPath id="clip3">
  <path d="M 357.191406 0.96875 L 375.511719 0.96875 L 375.511719 19.289062 L 357.191406 19.289062 Z M 357.191406 0.96875 "/>
</clipPath>
<clipPath id="clip4">
  <path d="M 0.167969 1 L 18 1 L 18 19 L 0.167969 19 Z M 0.167969 1 "/>
</clipPath>
<clipPath id="clip5">
  <path d="M 0.167969 0.96875 L 18.488281 0.96875 L 18.488281 19.289062 L 0.167969 19.289062 Z M 0.167969 0.96875 "/>
</clipPath>
<clipPath id="clip1">
  <rect width="376" height="20"/>
</clipPath>
<g id="surface4" clip-path="url(#clip1)">
<rect x="0" y="0" width="376" height="20" style="fill:rgb(100%,100%,100%);fill-opacity:1;stroke:none;"/>
<path style="fill:none;stroke-width:1;stroke-linecap:butt;stroke-linejoin:round;stroke:rgb(0%,0%,0%);stroke-opacity:1;stroke-miterlimit:10;" d="M 439.351562 167.871094 L 82.328125 167.871094 " transform="matrix(1,0,0,-1,-73,178)"/>
<g clip-path="url(#clip2)" clip-rule="nonzero">
<path style=" stroke:none;fill-rule:nonzero;fill:rgb(100%,0%,0%);fill-opacity:1;" d="M 366.351562 18.789062 C 368.648438 18.789062 370.851562 17.875 372.476562 16.25 C 374.101562 14.628906 375.011719 12.425781 375.011719 10.128906 C 375.011719 7.832031 374.101562 5.628906 372.476562 4.003906 C 370.851562 2.378906 368.648438 1.46875 366.351562 1.46875 C 364.054688 1.46875 361.851562 2.378906 360.230469 4.003906 C 358.605469 5.628906 357.691406 7.832031 357.691406 10.128906 C 357.691406 12.425781 358.605469 14.628906 360.230469 16.25 C 361.851562 17.875 364.054688 18.789062 366.351562 18.789062 Z M 366.351562 18.789062 "/>
</g>
<g clip-path="url(#clip3)" clip-rule="nonzero">
<path style="fill:none;stroke-width:1;stroke-linecap:butt;stroke-linejoin:round;stroke:rgb(100%,0%,0%);stroke-opacity:1;stroke-miterlimit:10;" d="M -0.00145919 -8.661128 C 2.295416 -8.661128 4.498541 -7.747065 6.123541 -6.122065 C 7.748541 -4.500972 8.658697 -2.297847 8.658697 -0.000971544 C 8.658697 2.295903 7.748541 4.499028 6.123541 6.124028 C 4.498541 7.749028 2.295416 8.659185 -0.00145919 8.659185 C -2.298334 8.659185 -4.501459 7.749028 -6.122553 6.124028 C -7.747553 4.499028 -8.661615 2.295903 -8.661615 -0.000971544 C -8.661615 -2.297847 -7.747553 -4.500972 -6.122553 -6.122065 C -4.501459 -7.747065 -2.298334 -8.661128 -0.00145919 -8.661128 Z M -0.00145919 -8.661128 " transform="matrix(1,0,0,-1,366.353022,10.127935)"/>
</g>
<g clip-path="url(#clip4)" clip-rule="nonzero">
<path style=" stroke:none;fill-rule:nonzero;fill:rgb(100%,0%,0%);fill-opacity:1;" d="M 9.328125 18.789062 C 11.625 18.789062 13.828125 17.875 15.453125 16.253906 C 17.074219 14.628906 17.988281 12.425781 17.988281 10.128906 C 17.988281 7.832031 17.074219 5.628906 15.453125 4.003906 C 13.828125 2.378906 11.625 1.46875 9.328125 1.46875 C 7.03125 1.46875 4.828125 2.378906 3.203125 4.003906 C 1.582031 5.628906 0.667969 7.832031 0.667969 10.128906 C 0.667969 12.425781 1.582031 14.628906 3.203125 16.253906 C 4.828125 17.875 7.03125 18.789062 9.328125 18.789062 Z M 9.328125 18.789062 "/>
</g>
<g clip-path="url(#clip5)" clip-rule="nonzero">
<path style="fill:none;stroke-width:1;stroke-linecap:butt;stroke-linejoin:round;stroke:rgb(100%,0%,0%);stroke-opacity:1;stroke-miterlimit:10;" d="M -0.000103306 -8.660747 C 2.296772 -8.660747 4.499897 -7.746685 6.124897 -6.125591 C 7.74599 -4.500591 8.660053 -2.297466 8.660053 -0.000590956 C 8.660053 2.296284 7.74599 4.499409 6.124897 6.124409 C 4.499897 7.749409 2.296772 8.659565 -0.000103306 8.659565 C -2.296978 8.659565 -4.500103 7.749409 -6.125103 6.124409 C -7.746197 4.499409 -8.66026 2.296284 -8.66026 -0.000590956 C -8.66026 -2.297466 -7.746197 -4.500591 -6.125103 -6.125591 C -4.500103 -7.746685 -2.296978 -8.660747 -0.000103306 -8.660747 Z M -0.000103306 -8.660747 " transform="matrix(1,0,0,-1,9.328228,10.128315)"/>
</g>
</g>
</defs>
<g id="surface1">
<use xlink:href="#surface4"/>
</g>
</svg>
