<?xml version="1.0" encoding="UTF-8" standalone="no"?>
<svg
   xmlns:dc="http://purl.org/dc/elements/1.1/"
   xmlns:cc="http://creativecommons.org/ns#"
   xmlns:rdf="http://www.w3.org/1999/02/22-rdf-syntax-ns#"
   xmlns:svg="http://www.w3.org/2000/svg"
   xmlns="http://www.w3.org/2000/svg"
   xmlns:sodipodi="http://sodipodi.sourceforge.net/DTD/sodipodi-0.dtd"
   xmlns:inkscape="http://www.inkscape.org/namespaces/inkscape"
   viewBox="0 0 1127.4 390.44357"
   height="390.44357"
   width="1127.4"
   xml:space="preserve"
   version="1.1"
   id="svg2"
   inkscape:version="0.91 r13725"
   sodipodi:docname="sfcomponents.svg"><sodipodi:namedview
     pagecolor="#ffffff"
     bordercolor="#666666"
     borderopacity="1"
     objecttolerance="10"
     gridtolerance="10"
     guidetolerance="10"
     inkscape:pageopacity="0"
     inkscape:pageshadow="2"
     inkscape:window-width="928"
     inkscape:window-height="1028"
     id="namedview194"
     showgrid="false"
     inkscape:zoom="0.53666667"
     inkscape:cx="541.45174"
     inkscape:cy="294.97101"
     inkscape:window-x="992"
     inkscape:window-y="24"
     inkscape:window-maximized="0"
     inkscape:current-layer="svg2"
     fit-margin-top="0"
     fit-margin-left="0"
     fit-margin-right="0"
     fit-margin-bottom="0" /><metadata
     id="metadata8"><rdf:RDF><cc:Work
         rdf:about=""><dc:format>image/svg+xml</dc:format><dc:type
           rdf:resource="http://purl.org/dc/dcmitype/StillImage" /><dc:title></dc:title></cc:Work></rdf:RDF></metadata><defs
     id="defs6"><clipPath
       id="clipPath16"
       clipPathUnits="userSpaceOnUse"><path
         style="clip-rule:evenodd"
         id="path18"
         d="m 0,1.2207e-4 960,0 0,539.99999793 -960,0 L 0,1.2207e-4 Z"
         inkscape:connector-curvature="0" /></clipPath><clipPath
       id="clipPath46"
       clipPathUnits="userSpaceOnUse"><path
         style="clip-rule:evenodd"
         id="path48"
         d="M 1.4305e-5,0 960.00001,0 l 0,540 -959.999995695,0 0,-540 z"
         inkscape:connector-curvature="0" /></clipPath><clipPath
       id="clipPath58"
       clipPathUnits="userSpaceOnUse"><path
         style="clip-rule:evenodd"
         id="path60"
         d="M 1.4305e-5,0 960.00001,0 l 0,540 -959.999995695,0 0,-540 z"
         inkscape:connector-curvature="0" /></clipPath><clipPath
       id="clipPath70"
       clipPathUnits="userSpaceOnUse"><path
         style="clip-rule:evenodd"
         id="path72"
         d="M 1.4305e-5,0 960.00001,0 l 0,540 -959.999995695,0 0,-540 z"
         inkscape:connector-curvature="0" /></clipPath><clipPath
       id="clipPath82"
       clipPathUnits="userSpaceOnUse"><path
         style="clip-rule:evenodd"
         id="path84"
         d="M 1.4305e-5,0 960.00001,0 l 0,540 -959.999995695,0 0,-540 z"
         inkscape:connector-curvature="0" /></clipPath><clipPath
       id="clipPath94"
       clipPathUnits="userSpaceOnUse"><path
         style="clip-rule:evenodd"
         id="path96"
         d="M 1.4305e-5,0 960.00001,0 l 0,540 -959.999995695,0 0,-540 z"
         inkscape:connector-curvature="0" /></clipPath><clipPath
       id="clipPath106"
       clipPathUnits="userSpaceOnUse"><path
         style="clip-rule:evenodd"
         id="path108"
         d="M 1.4305e-5,0 960.00001,0 l 0,540 -959.999995695,0 0,-540 z"
         inkscape:connector-curvature="0" /></clipPath><clipPath
       id="clipPath118"
       clipPathUnits="userSpaceOnUse"><path
         style="clip-rule:evenodd"
         id="path120"
         d="M 1.4305e-5,0 960.00001,0 l 0,540 -959.999995695,0 0,-540 z"
         inkscape:connector-curvature="0" /></clipPath><clipPath
       id="clipPath130"
       clipPathUnits="userSpaceOnUse"><path
         style="clip-rule:evenodd"
         id="path132"
         d="M 1.4305e-5,0 960.00001,0 l 0,540 -959.999995695,0 0,-540 z"
         inkscape:connector-curvature="0" /></clipPath><clipPath
       id="clipPath146"
       clipPathUnits="userSpaceOnUse"><path
         style="clip-rule:evenodd"
         id="path148"
         d="M 1.4305e-5,0 960.00001,0 l 0,540 -959.999995695,0 0,-540 z"
         inkscape:connector-curvature="0" /></clipPath><clipPath
       id="clipPath158"
       clipPathUnits="userSpaceOnUse"><path
         style="clip-rule:evenodd"
         id="path160"
         d="M 1.4305e-5,0 960.00001,0 l 0,540 -959.999995695,0 0,-540 z"
         inkscape:connector-curvature="0" /></clipPath><clipPath
       id="clipPath170"
       clipPathUnits="userSpaceOnUse"><path
         style="clip-rule:evenodd"
         id="path172"
         d="M 1.4305e-5,0 960.00001,0 l 0,540 -959.999995695,0 0,-540 z"
         inkscape:connector-curvature="0" /></clipPath><clipPath
       id="clipPath182"
       clipPathUnits="userSpaceOnUse"><path
         style="clip-rule:evenodd"
         id="path184"
         d="M 1.4305e-5,0 960.00001,0 l 0,540 -959.999995695,0 0,-540 z"
         inkscape:connector-curvature="0" /></clipPath><clipPath
       id="clipPath198"
       clipPathUnits="userSpaceOnUse"><path
         style="clip-rule:evenodd"
         id="path200"
         d="M 1.4305e-5,0 960.00001,0 l 0,540 -959.999995695,0 0,-540 z"
         inkscape:connector-curvature="0" /></clipPath><clipPath
       id="clipPath214"
       clipPathUnits="userSpaceOnUse"><path
         style="clip-rule:evenodd"
         id="path216"
         d="M 1.4305e-5,0 960.00001,0 l 0,540 -959.999995695,0 0,-540 z"
         inkscape:connector-curvature="0" /></clipPath><clipPath
       id="clipPath226"
       clipPathUnits="userSpaceOnUse"><path
         style="clip-rule:evenodd"
         id="path228"
         d="M 1.4305e-5,0 960.00001,0 l 0,540 -959.999995695,0 0,-540 z"
         inkscape:connector-curvature="0" /></clipPath><clipPath
       id="clipPath242"
       clipPathUnits="userSpaceOnUse"><path
         style="clip-rule:evenodd"
         id="path244"
         d="M 1.4305e-5,0 960.00001,0 l 0,540 -959.999995695,0 0,-540 z"
         inkscape:connector-curvature="0" /></clipPath><clipPath
       id="clipPath254"
       clipPathUnits="userSpaceOnUse"><path
         style="clip-rule:evenodd"
         id="path256"
         d="M 1.4305e-5,0 960.00001,0 l 0,540 -959.999995695,0 0,-540 z"
         inkscape:connector-curvature="0" /></clipPath><clipPath
       id="clipPath266"
       clipPathUnits="userSpaceOnUse"><path
         style="clip-rule:evenodd"
         id="path268"
         d="M 1.4305e-5,0 960.00001,0 l 0,540 -959.999995695,0 0,-540 z"
         inkscape:connector-curvature="0" /></clipPath><clipPath
       id="clipPath278"
       clipPathUnits="userSpaceOnUse"><path
         style="clip-rule:evenodd"
         id="path280"
         d="M 1.4305e-5,0 960.00001,0 l 0,540 -959.999995695,0 0,-540 z"
         inkscape:connector-curvature="0" /></clipPath><clipPath
       id="clipPath294"
       clipPathUnits="userSpaceOnUse"><path
         style="clip-rule:evenodd"
         id="path296"
         d="M 1.4305e-5,0 960.00001,0 l 0,540 -959.999995695,0 0,-540 z"
         inkscape:connector-curvature="0" /></clipPath><clipPath
       id="clipPath310"
       clipPathUnits="userSpaceOnUse"><path
         style="clip-rule:evenodd"
         id="path312"
         d="M 1.4305e-5,0 960.00001,0 l 0,540 -959.999995695,0 0,-540 z"
         inkscape:connector-curvature="0" /></clipPath><clipPath
       id="clipPath326"
       clipPathUnits="userSpaceOnUse"><path
         style="clip-rule:evenodd"
         id="path328"
         d="M 1.4305e-5,0 960.00001,0 l 0,540 -959.999995695,0 0,-540 z"
         inkscape:connector-curvature="0" /></clipPath><clipPath
       id="clipPath338"
       clipPathUnits="userSpaceOnUse"><path
         style="clip-rule:evenodd"
         id="path340"
         d="M 1.4305e-5,0 960.00001,0 l 0,540 -959.999995695,0 0,-540 z"
         inkscape:connector-curvature="0" /></clipPath><clipPath
       id="clipPath354"
       clipPathUnits="userSpaceOnUse"><path
         style="clip-rule:evenodd"
         id="path356"
         d="M 1.4305e-5,0 960.00001,0 l 0,540 -959.999995695,0 0,-540 z"
         inkscape:connector-curvature="0" /></clipPath><clipPath
       id="clipPath366"
       clipPathUnits="userSpaceOnUse"><path
         style="clip-rule:evenodd"
         id="path368"
         d="M 1.4305e-5,0 960.00001,0 l 0,540 -959.999995695,0 0,-540 z"
         inkscape:connector-curvature="0" /></clipPath><clipPath
       id="clipPath380"
       clipPathUnits="userSpaceOnUse"><path
         style="clip-rule:evenodd"
         id="path382"
         d="M 1.4305e-5,0 960.00001,0 l 0,540 -959.999995695,0 0,-540 z"
         inkscape:connector-curvature="0" /></clipPath></defs><g
     id="g12"
     transform="matrix(1.25,0,0,-1.25,-36.3,526.64357)"><g
       id="g14"
       clip-path="url(#clipPath16)"><path
         inkscape:connector-curvature="0"
         d="m 0,6.1035e-5 960,0 0,539.999998965 -960,0 L 0,6.1035e-5 Z"
         style="fill:#ffffff;fill-opacity:1;fill-rule:evenodd;stroke:none"
         id="path20" /></g></g><g
     id="g3656"
     transform="translate(-36.3,-148.35643)"><g
       transform="matrix(1.25,0,0,-1.25,0,675)"
       id="g22"><path
         id="path24"
         style="fill:none;stroke:#2f6168;stroke-width:5.03999996;stroke-linecap:butt;stroke-linejoin:miter;stroke-miterlimit:10;stroke-dasharray:5.04, 5.04;stroke-dashoffset:0;stroke-opacity:1"
         d="M 554.88,235.57 655.01,369.36"
         inkscape:connector-curvature="0" /></g><g
       transform="matrix(1.25,0,0,-1.25,0,675)"
       id="g26"><path
         id="path28"
         style="fill:none;stroke:#2f6168;stroke-width:5.03999996;stroke-linecap:butt;stroke-linejoin:miter;stroke-miterlimit:10;stroke-dasharray:5.04, 5.04;stroke-dashoffset:0;stroke-opacity:1"
         d="m 210.51,283.95 -99.63,44.61"
         inkscape:connector-curvature="0" /></g><g
       transform="matrix(1.25,0,0,-1.25,0,675)"
       id="g30"><path
         id="path32"
         style="fill:none;stroke:#2f6168;stroke-width:5.03999996;stroke-linecap:butt;stroke-linejoin:miter;stroke-miterlimit:10;stroke-dasharray:5.04, 5.04;stroke-dashoffset:0;stroke-opacity:1"
         d="m 112.44,171.63 99.63,44.61"
         inkscape:connector-curvature="0" /></g><g
       transform="matrix(1.25,0,0,-1.25,0,675)"
       id="g34"><path
         id="path36"
         style="fill:none;stroke:#2f6168;stroke-width:5.03999996;stroke-linecap:butt;stroke-linejoin:miter;stroke-miterlimit:10;stroke-dasharray:5.04, 5.04;stroke-dashoffset:0;stroke-opacity:1"
         d="m 158.04,247.56 535.12,0"
         inkscape:connector-curvature="0" /></g><path
       id="path38"
       style="fill:#d3ddb8;fill-opacity:1;fill-rule:evenodd;stroke:none"
       d="m 563.55,363.675 c 0,-43.0375 34.925,-77.925 78,-77.925 43.075,0 78,34.8875 78,77.925 0,43.0375 -34.925,77.925 -78,77.925 -43.075,0 -78,-34.8875 -78,-77.925 z"
       inkscape:connector-curvature="0" /><path
       id="path40"
       style="fill:#2f6168;fill-opacity:1;fill-rule:evenodd;stroke:none"
       d="m 568.2,364.2 c 0,-40.675 33.0125,-73.65 73.725,-73.65 40.7125,0 73.725,32.975 73.725,73.65 0,40.675 -33.0125,73.65 -73.725,73.65 -40.7125,0 -73.725,-32.975 -73.725,-73.65 z"
       inkscape:connector-curvature="0" /><g
       transform="matrix(1.25,0,0,-1.25,0,675)"
       id="g42"><g
         clip-path="url(#clipPath46)"
         id="g44"><text
           id="text50"
           style="font-variant:normal;font-weight:300;font-size:18px;font-family:Lato;-inkscape-font-specification:Lato-Light;writing-mode:lr-tb;fill:#fcfff4;fill-opacity:1;fill-rule:nonzero;stroke:#fcfff4;stroke-width:0.51428998;stroke-linecap:butt;stroke-linejoin:miter;stroke-miterlimit:10;stroke-dasharray:none;stroke-opacity:1"
           transform="matrix(1,0,0,-1,468,252.67)"><tspan
             id="tspan52"
             y="0"
             x="0 12.816 27.323999 43.686001 54.431999 59.813999 69.029999 79.667999">COMPILER</tspan></text>
</g></g><g
       transform="matrix(1.25,0,0,-1.25,0,675)"
       id="g54"><g
         clip-path="url(#clipPath58)"
         id="g56"><text
           id="text62"
           style="font-variant:normal;font-weight:300;font-size:18px;font-family:Lato;-inkscape-font-specification:Lato-Light;writing-mode:lr-tb;fill:#fcfff4;fill-opacity:1;fill-rule:nonzero;stroke:#fcfff4;stroke-width:0.51428998;stroke-linecap:butt;stroke-linejoin:miter;stroke-miterlimit:10;stroke-dasharray:none;stroke-opacity:1"
           transform="matrix(1,0,0,-1,479.76,231.07)"><tspan
             id="tspan64"
             y="0"
             x="0 10.782 24.462 38.034 43.416 57.023998">ENGINE</tspan></text>
</g></g><g
       transform="matrix(1.25,0,0,-1.25,0,675)"
       id="g66"><g
         clip-path="url(#clipPath70)"
         id="g68"><text
           id="text74"
           style="font-variant:normal;font-weight:300;font-size:24px;font-family:Lato;-inkscape-font-specification:Lato-Light;writing-mode:lr-tb;fill:#123642;fill-opacity:1;fill-rule:nonzero;stroke:#123642;stroke-width:0.68571001;stroke-linecap:butt;stroke-linejoin:miter;stroke-miterlimit:10;stroke-dasharray:none;stroke-opacity:1"
           transform="matrix(1,0,0,-1,702.62,403.8)"><tspan
             id="tspan76"
             y="0"
             x="0 15.456 30.695999 47.712002">BACK</tspan></text>
</g></g><g
       transform="matrix(1.25,0,0,-1.25,0,675)"
       id="g78"><g
         clip-path="url(#clipPath82)"
         id="g80"><text
           id="text86"
           style="font-variant:normal;font-weight:300;font-size:24px;font-family:Lato;-inkscape-font-specification:Lato-Light;writing-mode:lr-tb;fill:#123642;fill-opacity:1;fill-rule:nonzero;stroke:#123642;stroke-width:0.68571001;stroke-linecap:butt;stroke-linejoin:miter;stroke-miterlimit:10;stroke-dasharray:none;stroke-opacity:1"
           transform="matrix(1,0,0,-1,765.65,403.8)"><tspan
             id="tspan88"
             y="0"
             x="0">-</tspan></text>
</g></g><g
       transform="matrix(1.25,0,0,-1.25,0,675)"
       id="g90"><g
         clip-path="url(#clipPath94)"
         id="g92"><text
           id="text98"
           style="font-variant:normal;font-weight:300;font-size:24px;font-family:Lato;-inkscape-font-specification:Lato-Light;writing-mode:lr-tb;fill:#123642;fill-opacity:1;fill-rule:nonzero;stroke:#123642;stroke-width:0.68571001;stroke-linecap:butt;stroke-linejoin:miter;stroke-miterlimit:10;stroke-dasharray:none;stroke-opacity:1"
           transform="matrix(1,0,0,-1,773.57,403.8)"><tspan
             id="tspan100"
             y="0"
             x="0 14.256 32.400002 50.639999">ENDS</tspan></text>
</g></g><g
       transform="matrix(1.25,0,0,-1.25,0,675)"
       id="g102"><g
         clip-path="url(#clipPath106)"
         id="g104"><text
           id="text110"
           style="font-variant:normal;font-weight:300;font-size:24px;font-family:Lato;-inkscape-font-specification:Lato-Light;writing-mode:lr-tb;fill:#123642;fill-opacity:1;fill-rule:nonzero;stroke:#123642;stroke-width:0.68571001;stroke-linecap:butt;stroke-linejoin:miter;stroke-miterlimit:10;stroke-dasharray:none;stroke-opacity:1"
           transform="matrix(1,0,0,-1,226.06,403.8)"><tspan
             id="tspan112"
             y="0"
             x="0 13.728 28.559999 47.855999 66">FRONT</tspan></text>
</g></g><g
       transform="matrix(1.25,0,0,-1.25,0,675)"
       id="g114"><g
         clip-path="url(#clipPath118)"
         id="g116"><text
           id="text122"
           style="font-variant:normal;font-weight:300;font-size:24px;font-family:Lato;-inkscape-font-specification:Lato-Light;writing-mode:lr-tb;fill:#123642;fill-opacity:1;fill-rule:nonzero;stroke:#123642;stroke-width:0.68571001;stroke-linecap:butt;stroke-linejoin:miter;stroke-miterlimit:10;stroke-dasharray:none;stroke-opacity:1"
           transform="matrix(1,0,0,-1,303.82,403.8)"><tspan
             id="tspan124"
             y="0"
             x="0">-</tspan></text>
</g></g><g
       transform="matrix(1.25,0,0,-1.25,0,675)"
       id="g126"><g
         clip-path="url(#clipPath130)"
         id="g128"><text
           id="text134"
           style="font-variant:normal;font-weight:300;font-size:24px;font-family:Lato;-inkscape-font-specification:Lato-Light;writing-mode:lr-tb;fill:#123642;fill-opacity:1;fill-rule:nonzero;stroke:#123642;stroke-width:0.68571001;stroke-linecap:butt;stroke-linejoin:miter;stroke-miterlimit:10;stroke-dasharray:none;stroke-opacity:1"
           transform="matrix(1,0,0,-1,311.86,403.8)"><tspan
             id="tspan136"
             y="0"
             x="0 14.256 32.400002 50.639999">ENDS</tspan></text>
</g></g><path
       id="path138"
       style="fill:#123642;fill-opacity:1;fill-rule:evenodd;stroke:none"
       d="m 36.3,204.375 c 0,-7.825 6.34625,-14.175 14.175,-14.175 l 134.7,0 c 7.825,0 14.175,6.35 14.175,14.175 l 0,56.7 c 0,7.825 -6.35,14.175 -14.175,14.175 l -134.7,0 C 42.64625,275.25 36.3,268.9 36.3,261.075 l 0,-56.7 z"
       inkscape:connector-curvature="0" /><path
       id="path140"
       style="fill:#cbdad2;fill-opacity:1;fill-rule:evenodd;stroke:none"
       d="m 38.1,205.7 c 0,-7.4875 6.06625,-13.55 13.55,-13.55 l 132.35,0 c 7.4875,0 13.55,6.0625 13.55,13.55 l 0,54.2 c 0,7.4875 -6.0625,13.55 -13.55,13.55 l -132.35,0 c -7.48375,0 -13.55,-6.0625 -13.55,-13.55 l 0,-54.2 z"
       inkscape:connector-curvature="0" /><g
       transform="matrix(1.25,0,0,-1.25,0,675)"
       id="g142"><g
         clip-path="url(#clipPath146)"
         id="g144"><text
           id="text150"
           style="font-variant:normal;font-weight:300;font-size:15.96000004px;font-family:Lato;-inkscape-font-specification:Lato-Light;writing-mode:lr-tb;fill:#123642;fill-opacity:1;fill-rule:nonzero;stroke:#123642;stroke-width:0.456;stroke-linecap:butt;stroke-linejoin:miter;stroke-miterlimit:10;stroke-dasharray:none;stroke-opacity:1"
           transform="matrix(1,0,0,-1,33.384,357.31)"><tspan
             id="tspan152"
             y="0"
             x="0 8.3789997 14.1246 20.23728 28.0098 39.77232 48.534359 56.689919 63.026039 69.394081 77.166603 79.959602 89.184479 93.126602 101.28216 105.00084 113.715">Strawberry Fields</tspan></text>
</g></g><g
       transform="matrix(1.25,0,0,-1.25,0,675)"
       id="g154"><g
         clip-path="url(#clipPath158)"
         id="g156"><text
           id="text162"
           style="font-variant:normal;font-weight:300;font-size:15.96000004px;font-family:Lato;-inkscape-font-specification:Lato-Light;writing-mode:lr-tb;fill:#123642;fill-opacity:1;fill-rule:nonzero;stroke:#123642;stroke-width:0.456;stroke-linecap:butt;stroke-linejoin:miter;stroke-miterlimit:10;stroke-dasharray:none;stroke-opacity:1"
           transform="matrix(1,0,0,-1,32.784,338.11)"><tspan
             id="tspan164"
             y="0"
             x="0 4.8997202 13.6458 19.391399 27.546961 33.54792 41.224682 48.534359 54.16824 57.966721 65.563683">Interactive</tspan></text>
</g></g><g
       transform="matrix(1.25,0,0,-1.25,0,675)"
       id="g166"><g
         clip-path="url(#clipPath170)"
         id="g168"><text
           id="text174"
           style="font-variant:normal;font-weight:300;font-size:15.96000004px;font-family:Lato;-inkscape-font-specification:Lato-Light;writing-mode:lr-tb;fill:#123642;fill-opacity:1;fill-rule:nonzero;stroke:#123642;stroke-width:0.456;stroke-linecap:butt;stroke-linejoin:miter;stroke-miterlimit:10;stroke-dasharray:none;stroke-opacity:1"
           transform="matrix(1,0,0,-1,109.34,338.11)"><tspan
             id="tspan176"
             y="0"
             x="0 8.3789997 16.64628 23.110081 30.78684">Serve</tspan></text>
</g></g><g
       transform="matrix(1.25,0,0,-1.25,0,675)"
       id="g178"><g
         clip-path="url(#clipPath182)"
         id="g180"><text
           id="text186"
           style="font-variant:normal;font-weight:300;font-size:15.96000004px;font-family:Lato;-inkscape-font-specification:Lato-Light;writing-mode:lr-tb;fill:#123642;fill-opacity:1;fill-rule:nonzero;stroke:#123642;stroke-width:0.456;stroke-linecap:butt;stroke-linejoin:miter;stroke-miterlimit:10;stroke-dasharray:none;stroke-opacity:1"
           transform="matrix(1,0,0,-1,148.34,338.11)"><tspan
             id="tspan188"
             y="0"
             x="0">r</tspan></text>
</g></g><path
       id="path190"
       style="fill:#123642;fill-opacity:1;fill-rule:evenodd;stroke:none"
       d="m 36.3,467.925 c 0,-7.825 6.34625,-14.175 14.175,-14.175 l 134.7,0 c 7.825,0 14.175,6.35 14.175,14.175 l 0,56.7 c 0,7.825 -6.35,14.175 -14.175,14.175 l -134.7,0 C 42.64625,538.8 36.3,532.45 36.3,524.625 l 0,-56.7 z"
       inkscape:connector-curvature="0" /><path
       id="path192"
       style="fill:#cbdad2;fill-opacity:1;fill-rule:evenodd;stroke:none"
       d="m 38.1,469.25 c 0,-7.4875 6.06625,-13.55 13.55,-13.55 l 132.35,0 c 7.4875,0 13.55,6.0625 13.55,13.55 l 0,54.2 c 0,7.4875 -6.0625,13.55 -13.55,13.55 L 51.65,537 C 44.16625,537 38.1,530.9375 38.1,523.45 l 0,-54.2 z"
       inkscape:connector-curvature="0" /><g
       transform="matrix(1.25,0,0,-1.25,0,675)"
       id="g194"><g
         clip-path="url(#clipPath198)"
         id="g196"><text
           id="text202"
           style="font-variant:normal;font-weight:300;font-size:15.96000004px;font-family:Lato;-inkscape-font-specification:Lato-Light;writing-mode:lr-tb;fill:#123642;fill-opacity:1;fill-rule:nonzero;stroke:#123642;stroke-width:0.456;stroke-linecap:butt;stroke-linejoin:miter;stroke-miterlimit:10;stroke-dasharray:none;stroke-opacity:1"
           transform="matrix(1,0,0,-1,52.176,136.75)"><tspan
             id="tspan204"
             y="0"
             x="0 10.42188 19.040279 27.65868 31.6008 35.399281 42.661079 50.433601 56.083439 59.88192 68.516281 77.182564">Applications</tspan></text>
</g></g><path
       id="path206"
       style="fill:#123642;fill-opacity:1;fill-rule:evenodd;stroke:none"
       d="m 160.5,329.125 c 0,-9.7875 7.9375,-17.725 17.725,-17.725 l 127.6,0 c 9.7875,0 17.725,7.9375 17.725,17.725 l 0,70.9 c 0,9.7875 -7.9375,17.725 -17.725,17.725 l -127.6,0 c -9.7875,0 -17.725,-7.9375 -17.725,-17.725 l 0,-70.9 z"
       inkscape:connector-curvature="0" /><path
       id="path208"
       style="fill:#cbdad2;fill-opacity:1;fill-rule:evenodd;stroke:none"
       d="m 162.3,330.3 c 0,-9.45 7.65,-17.1 17.1,-17.1 l 125.25,0 c 9.45,0 17.1,7.65 17.1,17.1 l 0,68.4 c 0,9.45 -7.65,17.1 -17.1,17.1 l -125.25,0 c -9.45,0 -17.1,-7.65 -17.1,-17.1 l 0,-68.4 z"
       inkscape:connector-curvature="0" /><g
       transform="matrix(1.25,0,0,-1.25,0,675)"
       id="g210"><g
         clip-path="url(#clipPath214)"
         id="g212"><text
           id="text218"
           style="font-variant:normal;font-weight:300;font-size:15.96000004px;font-family:Lato;-inkscape-font-specification:Lato-Light;writing-mode:lr-tb;fill:#123642;fill-opacity:1;fill-rule:nonzero;stroke:#123642;stroke-width:0.456;stroke-linecap:butt;stroke-linejoin:miter;stroke-miterlimit:10;stroke-dasharray:none;stroke-opacity:1"
           transform="matrix(1,0,0,-1,154.99,252.55)"><tspan
             id="tspan220"
             y="0"
             x="0 8.3789997 14.1246 20.23728 28.0098 39.77232 48.534359 56.689919 63.026039 69.394081">Strawberry</tspan></text>
</g></g><g
       transform="matrix(1.25,0,0,-1.25,0,675)"
       id="g222"><g
         clip-path="url(#clipPath226)"
         id="g224"><text
           id="text230"
           style="font-variant:normal;font-weight:300;font-size:15.96000004px;font-family:Lato;-inkscape-font-specification:Lato-Light;writing-mode:lr-tb;fill:#123642;fill-opacity:1;fill-rule:nonzero;stroke:#123642;stroke-width:0.456;stroke-linecap:butt;stroke-linejoin:miter;stroke-miterlimit:10;stroke-dasharray:none;stroke-opacity:1"
           transform="matrix(1,0,0,-1,159.43,233.35)"><tspan
             id="tspan232"
             y="0"
             x="0 9.2248802 13.167 21.322559 25.041241 33.755402 40.618198 43.395241 53.81712 63.409081">Fields API</tspan></text>
</g></g><path
       id="path234"
       style="fill:#123642;fill-opacity:1;fill-rule:evenodd;stroke:none"
       d="m 365.4,329.125 c 0,-9.7875 7.9375,-17.725 17.725,-17.725 l 127.6,0 c 9.7875,0 17.725,7.9375 17.725,17.725 l 0,70.9 c 0,9.7875 -7.9375,17.725 -17.725,17.725 l -127.6,0 c -9.7875,0 -17.725,-7.9375 -17.725,-17.725 l 0,-70.9 z"
       inkscape:connector-curvature="0" /><path
       id="path236"
       style="fill:#cbdad2;fill-opacity:1;fill-rule:evenodd;stroke:none"
       d="m 367.2,330.3 c 0,-9.45 7.65,-17.1 17.1,-17.1 l 125.25,0 c 9.45,0 17.1,7.65 17.1,17.1 l 0,68.4 c 0,9.45 -7.65,17.1 -17.1,17.1 l -125.25,0 c -9.45,0 -17.1,-7.65 -17.1,-17.1 l 0,-68.4 z"
       inkscape:connector-curvature="0" /><g
       transform="matrix(1.25,0,0,-1.25,0,675)"
       id="g238"><g
         clip-path="url(#clipPath242)"
         id="g240"><text
           id="text246"
           style="font-variant:normal;font-weight:300;font-size:15.96000004px;font-family:Lato;-inkscape-font-specification:Lato-Light;writing-mode:lr-tb;fill:#123642;fill-opacity:1;fill-rule:nonzero;stroke:#123642;stroke-width:0.456;stroke-linecap:butt;stroke-linejoin:miter;stroke-miterlimit:10;stroke-dasharray:none;stroke-opacity:1"
           transform="matrix(1,0,0,-1,325.15,270.53)"><tspan
             id="tspan248"
             y="0"
             x="0 10.31016 14.25228 22.024799 29.350439 37.154881 45.869041 49.667519 56.003639">Blackbird</tspan></text>
</g></g><g
       transform="matrix(1.25,0,0,-1.25,0,675)"
       id="g250"><g
         clip-path="url(#clipPath254)"
         id="g252"><text
           id="text258"
           style="font-variant:normal;font-weight:300;font-size:15.96000004px;font-family:Lato;-inkscape-font-specification:Lato-Light;writing-mode:lr-tb;fill:#123642;fill-opacity:1;fill-rule:nonzero;stroke:#123642;stroke-width:0.456;stroke-linecap:butt;stroke-linejoin:miter;stroke-miterlimit:10;stroke-dasharray:none;stroke-opacity:1"
           transform="matrix(1,0,0,-1,324.91,251.33)"><tspan
             id="tspan260"
             y="0"
             x="0 12.8478 21.59388 29.49408 38.128441 43.778278 52.41264">Quantum</tspan></text>
</g></g><g
       transform="matrix(1.25,0,0,-1.25,0,675)"
       id="g262"><g
         clip-path="url(#clipPath266)"
         id="g264"><text
           id="text270"
           style="font-variant:normal;font-weight:300;font-size:15.98400021px;font-family:Lato;-inkscape-font-specification:Lato-Light;writing-mode:lr-tb;fill:#123642;fill-opacity:1;fill-rule:nonzero;stroke:#123642;stroke-width:0.45669001;stroke-linecap:butt;stroke-linejoin:miter;stroke-miterlimit:10;stroke-dasharray:none;stroke-opacity:1"
           transform="matrix(1,0,0,-1,311.11,232.13)"><tspan
             id="tspan272"
             y="0"
             x="0 9.5903997 16.047935 24.791183 32.943024 38.937023 46.609344 59.332607 72.05587 75.860062 84.507408">Programming</tspan></text>
</g></g><g
       transform="matrix(1.25,0,0,-1.25,0,675)"
       id="g274"><g
         clip-path="url(#clipPath278)"
         id="g276"><text
           id="text282"
           style="font-variant:normal;font-weight:300;font-size:15.96000004px;font-family:Lato;-inkscape-font-specification:Lato-Light;writing-mode:lr-tb;fill:#123642;fill-opacity:1;fill-rule:nonzero;stroke:#123642;stroke-width:0.456;stroke-linecap:butt;stroke-linejoin:miter;stroke-miterlimit:10;stroke-dasharray:none;stroke-opacity:1"
           transform="matrix(1,0,0,-1,324.67,212.9)"><tspan
             id="tspan284"
             y="0"
             x="0 8.2672796 16.16748 24.913561 33.053162 41.687519 49.380241 57.51984">Language</tspan></text>
</g></g><path
       id="path286"
       style="fill:#123642;fill-opacity:1;fill-rule:evenodd;stroke:none"
       d="m 777.45,213.15 c 0,-5.05 4.1,-9.15 9.15,-9.15 l 367.95,0 c 5.05,0 9.15,4.1 9.15,9.15 l 0,36.6 c 0,5.05 -4.1,9.15 -9.15,9.15 l -367.95,0 c -5.05,0 -9.15,-4.1 -9.15,-9.15 l 0,-36.6 z"
       inkscape:connector-curvature="0" /><path
       id="path288"
       style="fill:#cbdad2;fill-opacity:1;fill-rule:evenodd;stroke:none"
       d="m 779.55,214.325 c 0,-4.7125 3.8125,-8.525 8.525,-8.525 l 365,0 c 4.7125,0 8.525,3.8125 8.525,8.525 l 0,34.1 c 0,4.7125 -3.8125,8.525 -8.525,8.525 l -365,0 c -4.7125,0 -8.525,-3.8125 -8.525,-8.525 l 0,-34.1 z"
       inkscape:connector-curvature="0" /><g
       transform="matrix(1.25,0,0,-1.25,0,675)"
       id="g290"><g
         clip-path="url(#clipPath294)"
         id="g292"><text
           id="text298"
           style="font-variant:normal;font-weight:300;font-size:18px;font-family:Lato;-inkscape-font-specification:Lato-Light;writing-mode:lr-tb;fill:#123642;fill-opacity:1;fill-rule:nonzero;stroke:#123642;stroke-width:0.51428998;stroke-linecap:butt;stroke-linejoin:miter;stroke-miterlimit:10;stroke-dasharray:none;stroke-opacity:1"
           transform="matrix(1,0,0,-1,699.34,348)"><tspan
             id="tspan300"
             y="0"
             x="0 14.508 24.336 33.192001 42.93 49.265999 59.094002 73.421997 76.608002 87.389999 94.697998 104.526 112.716 122.022 129.70799 137.48399 147.222">Quantum Processor</tspan></text>
</g></g><path
       id="path302"
       style="fill:#123642;fill-opacity:1;fill-rule:evenodd;stroke:none"
       d="m 777.45,325.625 c 0,-21.8625 17.7125,-39.575 39.575,-39.575 l 307.1,0 c 21.85,0 39.575,17.7125 39.575,39.575 l 0,158.3 c 0,21.85 -17.725,39.575 -39.575,39.575 l -307.1,0 c -21.8625,0 -39.575,-17.725 -39.575,-39.575 l 0,-158.3 z"
       inkscape:connector-curvature="0" /><path
       id="path304"
       style="fill:#cbdad2;fill-opacity:1;fill-rule:evenodd;stroke:none"
       d="m 779.55,326.925 c 0,-21.5 17.425,-38.925 38.925,-38.925 l 304.2,0 c 21.5,0 38.925,17.425 38.925,38.925 l 0,155.7 c 0,21.5 -17.425,38.925 -38.925,38.925 l -304.2,0 c -21.5,0 -38.925,-17.425 -38.925,-38.925 l 0,-155.7 z"
       inkscape:connector-curvature="0" /><g
       transform="matrix(1.25,0,0,-1.25,0,675)"
       id="g306"><g
         clip-path="url(#clipPath310)"
         id="g308"><text
           id="text314"
           style="font-variant:normal;font-weight:300;font-size:18px;font-family:Lato;-inkscape-font-specification:Lato-Light;writing-mode:lr-tb;fill:#123642;fill-opacity:1;fill-rule:nonzero;stroke:#123642;stroke-width:0.51428998;stroke-linecap:butt;stroke-linejoin:miter;stroke-miterlimit:10;stroke-dasharray:none;stroke-opacity:1"
           transform="matrix(1,0,0,-1,735.48,288.34)"><tspan
             id="tspan316"
             y="0"
             x="0 9.4680004 13.896 28.278 38.015999 42.299999 51.066002 57.438 67.176003 74.321999">Simulators</tspan></text>
</g></g><path
       id="path318"
       style="fill:#fcfff4;fill-opacity:1;fill-rule:evenodd;stroke:none"
       d="m 795.75,340.75 c 0,-7.675 6.225,-13.9 13.9,-13.9 l 322.15,0 c 7.675,0 13.9,6.225 13.9,13.9 l 0,55.6 c 0,7.675 -6.225,13.9 -13.9,13.9 l -322.15,0 c -7.675,0 -13.9,-6.225 -13.9,-13.9 l 0,-55.6 z"
       inkscape:connector-curvature="0" /><path
       id="path320"
       style="fill:#fcfff4;fill-opacity:1;fill-rule:evenodd;stroke:none"
       d="m 795.75,435.4 c 0,-7.675 6.225,-13.9 13.9,-13.9 l 322.15,0 c 7.675,0 13.9,6.225 13.9,13.9 l 0,55.6 c 0,7.675 -6.225,13.9 -13.9,13.9 l -322.15,0 c -7.675,0 -13.9,-6.225 -13.9,-13.9 l 0,-55.6 z"
       inkscape:connector-curvature="0" /><g
       transform="matrix(1.25,0,0,-1.25,0,675)"
       id="g322"><g
         clip-path="url(#clipPath326)"
         id="g324"><text
           id="text330"
           style="font-style:italic;font-variant:normal;font-weight:300;font-size:18.02400017px;font-family:Lato;-inkscape-font-specification:Lato-LightItalic;writing-mode:lr-tb;fill:#123642;fill-opacity:1;fill-rule:nonzero;stroke:none"
           transform="matrix(1,0,0,-1,708.36,257.3)"><tspan
             id="tspan332"
             y="0"
             x="0 8.7596636 17.663521 25.431864 33.434521 36.913151 47.385098 55.459846 64.561966 70.203484 78.278229 85.235497 93.238152 102.46644 108.39634 117.11995 123.04985 127.08723 135.99107">Fock Representation</tspan></text>
</g></g><g
       transform="matrix(1.25,0,0,-1.25,0,675)"
       id="g334"><g
         clip-path="url(#clipPath338)"
         id="g336"><text
           id="text342"
           style="font-style:italic;font-variant:normal;font-weight:300;font-size:18px;font-family:Lato;-inkscape-font-specification:Lato-LightItalic;writing-mode:lr-tb;fill:#123642;fill-opacity:1;fill-rule:nonzero;stroke:none"
           transform="matrix(1,0,0,-1,687.26,181.37)"><tspan
             id="tspan344"
             y="0"
             x="0 12.384 21.114 30.312 37.296001 44.243999 48.348 57.096001 66.311996 70.164001 80.622002 88.685997 97.776001 103.41 111.474 118.422 126.486 135.702 141.57001 150.336 156.258 160.28999 169.18201">Gaussian Representation</tspan></text>
</g></g><path
       id="path346"
       style="fill:#2f6168;fill-opacity:1;fill-rule:evenodd;stroke:none"
       d="m 976.35,367.7 c 0,-3.3375 2.7125,-6.05 6.05,-6.05 l 144.95,0 c 3.3375,0 6.05,2.7125 6.05,6.05 l 0,24.2 c 0,3.3375 -2.7125,6.05 -6.05,6.05 l -144.95,0 c -3.3375,0 -6.05,-2.7125 -6.05,-6.05 l 0,-24.2 z"
       inkscape:connector-curvature="0" /><path
       id="path348"
       style="fill:#2f6168;fill-opacity:1;fill-rule:evenodd;stroke:none"
       d="m 807.3,368.325 c 0,-3.35 2.725,-6.075 6.075,-6.075 l 144.6,0 c 3.35,0 6.075,2.725 6.075,6.075 l 0,24.3 c 0,3.35 -2.725,6.075 -6.075,6.075 l -144.6,0 c -3.35,0 -6.075,-2.725 -6.075,-6.075 l 0,-24.3 z"
       inkscape:connector-curvature="0" /><g
       transform="matrix(1.25,0,0,-1.25,0,675)"
       id="g350"><g
         clip-path="url(#clipPath354)"
         id="g352"><text
           id="text358"
           style="font-variant:normal;font-size:15.96000004px;font-family:Lato;-inkscape-font-specification:Lato-Hairline;writing-mode:lr-tb;fill:#fcfff4;fill-opacity:1;fill-rule:nonzero;stroke:#fcfff4;stroke-width:0.456;stroke-linecap:butt;stroke-linejoin:miter;stroke-miterlimit:10;stroke-dasharray:none;stroke-opacity:1"
           transform="matrix(1,0,0,-1,683.54,230.64)"><tspan
             id="tspan360"
             y="0"
             x="0 12.22536 20.73204 33.1968 42.533401">NumPy</tspan></text>
</g></g><g
       transform="matrix(1.25,0,0,-1.25,0,675)"
       id="g362"><g
         clip-path="url(#clipPath366)"
         id="g364"><text
           id="text370"
           style="font-variant:normal;font-size:15.96000004px;font-family:Lato;-inkscape-font-specification:Lato-Hairline;writing-mode:lr-tb;fill:#fcfff4;fill-opacity:1;fill-rule:nonzero;stroke:#fcfff4;stroke-width:0.456;stroke-linecap:butt;stroke-linejoin:miter;stroke-miterlimit:10;stroke-dasharray:none;stroke-opacity:1"
           transform="matrix(1,0,0,-1,806.74,230.14)"><tspan
             id="tspan372"
             y="0"
             x="0 7.5650401 15.59292 24.0996 31.0422 39.548882 45.884998 50.816639 54.35976 62.914322">Tensorflow</tspan></text>
</g></g><path
       id="path374"
       style="fill:#2f6168;fill-opacity:1;fill-rule:evenodd;stroke:none"
       d="m 892.2,463.875 c 0,-3.35 2.725,-6.075 6.075,-6.075 l 144.6,0 c 3.35,0 6.075,2.725 6.075,6.075 l 0,24.3 c 0,3.35 -2.725,6.075 -6.075,6.075 l -144.6,0 c -3.35,0 -6.075,-2.725 -6.075,-6.075 l 0,-24.3 z"
       inkscape:connector-curvature="0" /><g
       transform="matrix(1.25,0,0,-1.25,0,675)"
       id="g376"><g
         clip-path="url(#clipPath380)"
         id="g378"><text
           id="text384"
           style="font-variant:normal;font-size:15.98400021px;font-family:Lato;-inkscape-font-specification:Lato-Hairline;writing-mode:lr-tb;fill:#fcfff4;fill-opacity:1;fill-rule:nonzero;stroke:#fcfff4;stroke-width:0.45669001;stroke-linecap:butt;stroke-linejoin:miter;stroke-miterlimit:10;stroke-dasharray:none;stroke-opacity:1"
           transform="matrix(1,0,0,-1,751.49,154.22)"><tspan
             id="tspan386"
             y="0"
             x="0 12.22776 20.731249 33.198769 42.549408">NumPy</tspan></text>
</g></g></g></svg>